# AST/ASF file generated using VICON BodyLanguage
# -----------------------------------------------
:version 1.10
:name VICON
:units
  mass 1.0
  length 0.45
  angle deg
:documentation
   .ast/.asf automatically generated from VICON data using
   VICON BodyBuilder and BodyLanguage model FoxedUp or BRILLIANT.MOD
:root
   order TX TY TZ RX RY RZ
   axis XYZ
   position 0 0 0  
   orientation 0 0 0 
:bonedata
  begin
     id 1 
     name lhipjoint
     direction 0.650112 -0.723553 0.232005 
     length 2.45805 
     axis 0 0 0  XYZ
  end
  begin
     id 2 
     name lfemur
     direction 0.34202 -0.939693 0  
     length 7.00073  
     axis 0 0 20  XYZ
    dof rx ry rz
    limits (-160.0 20.0)
           (-70.0 70.0)
           (-60.0 70.0)
  end
  begin
     id 3 
     name ltibia
     direction 0.34202 -0.939693 0   
     length 7.8748   
     axis 0 0 20   XYZ
    dof rx
    limits (-10.0 170.0)
  end
  begin
     id 4 
     name lfoot
     direction 0.0542825 -0.14914 0.987325   
     length 1.75978   
     axis -90 7.62852e-016 20   XYZ
    dof rx rz
    limits (-45.0 90.0)
           (-70.0 20.0)
  end
  begin
     id 5 
     name ltoes
     direction 1.53509e-011 -4.21906e-011 1   
     length 0.893912   
     axis -90 7.62852e-016 20   XYZ
    dof rx
    limits (-90.0 20.0)
  end
  begin
     id 6 
     name rhipjoint
     direction -0.637897 -0.733345 0.235145   
     length 2.42522  
     axis 0 0 0  XYZ 
  end
  begin
     id 7 
     name rfemur
     direction -0.34202 -0.939693 0   
     length 7.02549   
     axis 0 0 -20   XYZ
    dof rx ry rz
    limits (-160.0 20.0)
           (-70.0 70.0)
           (-70.0 60.0)
  end
  begin
     id 8 
     name rtibia
     direction -0.34202 -0.939693 0   
     length 7.71512   
     axis 0 0 -20   XYZ
    dof rx
    limits (-10.0 170.0)
 end
 begin
     id 9 
     name rfoot
     direction -0.0822618 -0.226012 0.970645   
     length 1.90014  
     axis -90 -7.62852e-016 -20   XYZ
    dof rx rz
    limits (-45.0 90.0)
           (-20.0 70.0)
  end
  begin
     id 10 
     name rtoes
     direction -1.53542e-011 -4.21872e-011 1   
     length 0.957341   
     axis -90 -7.62852e-016 -20   XYZ
    dof rx
    limits (-90.0 20.0)
  end
  begin
     id 11 
     name lowerback
     direction -0.0022947 0.999774 -0.0211557   
     length 1.89909   
     axis 0 0 0   XYZ
    dof rx ry rz
    limits (-20.0 45.0)
           (-30.0 30.0)
           (-30.0 30.0)
  end
  begin
     id 12 
     name upperback
     direction 0.0107737 0.998635 0.0511027   
     length 1.8853   
     axis 0 0 0   XYZ
    dof rx ry rz
    limits (-20.0 45.0)
           (-30.0 30.0)
           (-30.0 30.0)
  end
  begin
     id 13 
     name thorax
     direction 0.011824 0.998136 0.0598754   
     length 1.88911   
     axis 0 0 0   XYZ
    dof rx ry rz
    limits (-20.0 45.0)
           (-30.0 30.0)
           (-30.0 30.0)
  end
  begin
     id 14 
     name lowerneck
     direction -0.0685355 0.990319 0.120714   
     length 1.91222   
     axis 0 0 0   XYZ
    dof rx ry rz
    limits (-20.0 45.0)
           (-30.0 30.0)
           (-30.0 30.0)
  end
  begin
     id 15 
     name upperneck
     direction 0.0886204 0.955665 -0.280805   
     length 1.92526   
     axis 0 0 0   XYZ
    dof rx ry rz
    limits (-20.0 45.0)
           (-30.0 30.0)
           (-30.0 30.0)
  end
  begin
     id 16
     name head
     direction 0.0233423 0.993502 -0.111393  
     length 1.96056  
     axis 0 0 0   XYZ
    dof rx ry rz
    limits (-20.0 45.0)
           (-30.0 30.0)
           (-30.0 30.0)
  end
  begin
     id 17 
     name lclavicle
     direction 0.941873 0.32922 0.0670041  
     length 3.31705  
     axis 0 0 0   XYZ
    dof ry rz
    limits (-20.0 10.0)
           (0.0 20.0)
  end
  begin
     id 18 
     name lhumerus
     direction 1 -4.4898e-011 3.38707e-028   
     length 5.29277   
     axis 180 -30 -90   XYZ
    dof rx ry rz
    limits (-60.0 90.0)
           (-90.0 90.0)
           (-90.0 90.0)
  end
  begin
     id 19
     name lradius
     direction 1 -4.48952e-011 1.63213e-028   
     length 2.85226   
     axis 180 -30 -90   XYZ
    dof rx
    limits (-10.0 170.0)
  end
  begin
     id 20
     name lwrist
     direction 1 -4.49001e-011 1.27856e-027   
     length 1.42613   
     axis -1.61767e-015 90 90   XYZ
    dof ry
    limits (-180.0 0.0)
 end
  begin
     id 21 
     name lhand
     direction 1 -4.48976e-011 2.55931e-027   
     length 0.602097   
     axis -1.63363e-015 90 90   XYZ
    dof rx rz
    limits (-90.0 90.0)
           (-45.0 45.0)
  end
  begin
     id 22 
     name lfingers
     direction 1 -4.48986e-011 5.11684e-027   
     length 0.485426   
     axis -3.26723e-015 90 90   XYZ
    dof rx
    limits (0.0 90.0)
  end
  begin
     id 23
     name lthumb
     direction 0.707107 -6.34915e-011 0.707107   
     length 0.696978   
     axis -90 45 -2.25915e-014   XYZ
    dof rx rz
    limits (-45.0 45.0)
           (-45.0 45.0)
  end
  begin
     id 24 
     name rclavicle
     direction -0.939974 0.327078 0.0973096   
     length 3.10337  
     axis 0 0 0   XYZ 
    dof ry rz
    limits (-10.0 20.0)
           (-20.0 0.0)
  end
  begin
     id 25 
     name rhumerus
     direction -1 -4.48975e-011 1.83745e-027  
     length 5.13304   
     axis 180 30 90   XYZ
    dof rx ry rz
    limits (-90.0 60.0)
           (-90.0 90.0)
           (-90.0 90.0)
  end
  begin
     id 26 
     name rradius
     direction -1 -4.48977e-011 7.1775e-029   
     length 2.74305   
     axis 180 30 90   XYZ
    dof rx
    limits (-10.0 170.0)
  end
  begin
     id 27 
     name rwrist
     direction -1 -4.48977e-011 1.27963e-027   
     length 1.37152   
     axis -1.61767e-015 -90 -90   XYZ
    dof ry
    limits (-180.0 0.0)
  end
  begin
     id 28
     name rhand
     direction -1 -4.4888e-011 2.56782e-027   
     length 0.767976   
     axis -1.63363e-015 -90 -90   XYZ
    dof rx rz
    limits (-90.0 90.0)
           (-45.0 45.0)
  end
  begin
     id 29
     name rfingers
     direction -1 -4.48947e-011 5.12384e-027   
     length 0.619162   
     axis -3.26723e-015 -90 -90   XYZ
    dof rx
    limits (0.0 90.0)
  end
  begin
     id 30
     name rthumb
     direction -0.707107 -6.34857e-011 0.707107   
     length 0.888997   
     axis -90 -45 2.25915e-014   XYZ
    dof rx rz
    limits (-45.0 45.0)
           (-45.0 45.0)
  end
:hierarchy
  begin
    root lhipjoint rhipjoint lowerback
    lhipjoint lfemur
    lfemur ltibia
    ltibia lfoot
    lfoot ltoes
    rhipjoint rfemur
    rfemur rtibia
    rtibia rfoot
    rfoot rtoes
    lowerback upperback
    upperback thorax
    thorax lowerneck lclavicle rclavicle
    lowerneck upperneck
    upperneck head
    lclavicle lhumerus
    lhumerus lradius
    lradius lwrist
    lwrist lhand lthumb
    lhand lfingers
    rclavicle rhumerus
    rhumerus rradius
    rradius rwrist
    rwrist rhand rthumb
    rhand rfingers
  end

#!OML:ASF F:\VICON\USERDATA\INSTALL\rory3\rory3.ASF
:FULLY-SPECIFIED
:DEGREES
1408
root 0.294179 16.812 -1.81794 6.26754 7.2946 6.39792
lowerback 18.8377 -0.519832 6.27711
upperback 9.54875 0.66992 9.94941
thorax -0.234571 0.328753 7.0403
lowerneck -9.03892 -13.7965 -16.6404
upperneck 6.24891 -19.2632 24.7641
head 7.70242 -8.59961 8.51808
rclavicle -6.67916e-014 -1.59028e-014
rhumerus 35.3317 40.973 -31.7356
rradius 57.1653
rwrist 7.55532
rhand -13.0225 10.1136
rfingers 7.12502
rthumb 13.0715 -19.4568
lclavicle -6.67916e-014 -1.59028e-014
lhumerus 71.0126 -32.69 -29.9965
lradius 60.065
lwrist 26.085
lhand -3.16666 24.424
lfingers 7.12502
lthumb 22.554 53.1266
rfemur -25.1523 0.468568 9.65326
rtibia 41.2689
rfoot -21.0062 -9.51329
rtoes -21.7133
lfemur -26.3363 -6.06732 -24.6875
ltibia 36.5733
lfoot -12.7123 -5.07242
ltoes -12.1716
1409
root 0.308865 16.8058 -1.82544 6.27638 6.73273 6.33319
lowerback 19.011 -0.499996 6.16528
upperback 9.48819 0.698966 9.91222
thorax -0.394629 0.336903 7.05901
lowerneck -8.78414 -13.6479 -16.6817
upperneck 6.12168 -19.0775 24.9083
head 7.59998 -8.53139 8.6265
rclavicle 4.6118e-014 8.90555e-014
rhumerus 34.7699 40.8368 -33.0797
rradius 57.0528
rwrist 8.02609
rhand -13.0979 10.336
rfingers 7.12502
rthumb 12.9988 -19.239
lclavicle 4.6118e-014 8.90555e-014
lhumerus 71.1966 -32.6497 -29.8293
lradius 59.7006
lwrist 25.9777
lhand -3.31861 24.2197
lfingers 7.12502
lthumb 22.4082 52.9399
rfemur -25.4381 0.582799 9.63785
rtibia 41.379
rfoot -21.0521 -9.20344
rtoes -21.8028
lfemur -26.5456 -5.81363 -24.6822
ltibia 36.9226
lfoot -12.9146 -4.769
ltoes -12.5915
1410
root 0.326159 16.7964 -1.83179 6.29267 6.19118 6.36608
lowerback 19.1442 -0.516551 5.93517
upperback 9.49104 0.650128 9.90731
thorax -0.459813 0.302156 7.19792
lowerneck -8.84284 -13.5025 -16.7772
upperneck 6.21258 -18.8658 24.8523
head 7.5944 -8.42962 8.66305
rclavicle -2.06736e-014 -1.27222e-013
rhumerus 34.672 40.8093 -33.8791
rradius 56.9642
rwrist 8.50143
rhand -13.2226 10.4168
rfingers 7.12502
rthumb 12.8786 -19.1659
lclavicle -2.06736e-014 -1.27222e-013
lhumerus 71.1763 -32.6212 -29.3438
lradius 59.2866
lwrist 25.9441
lhand -3.29484 24.2196
lfingers 7.12502
lthumb 22.431 52.9371
rfemur -25.7457 0.61787 9.51065
rtibia 41.5425
rfoot -21.1331 -8.83557
rtoes -22.2652
lfemur -26.76 -5.62236 -24.7902
ltibia 37.3404
lfoot -13.2187 -4.4454
ltoes -13.2685
1411
root 0.340921 16.7826 -1.84373 6.37864 5.61926 6.28834
lowerback 19.2916 -0.538323 5.6746
upperback 9.58678 0.582968 9.99977
thorax -0.427874 0.254221 7.47007
lowerneck -9.41499 -13.3892 -16.8053
upperneck 6.42762 -18.6419 24.6113
head 7.68583 -8.28828 8.59843
rclavicle -1.11319e-014 -6.36111e-015
rhumerus 35.2125 40.876 -33.9802
rradius 56.9547
rwrist 8.68681
rhand -13.4146 10.4049
rfingers 7.12502
rthumb 12.6936 -19.1893
lclavicle -1.11319e-014 -6.36111e-015
lhumerus 70.7654 -32.5241 -28.4013
lradius 58.7336
lwrist 25.7365
lhand -3.06329 24.363
lfingers 7.12502
lthumb 22.6532 53.0535
rfemur -26.2134 0.673719 9.5185
rtibia 41.7457
rfoot -21.2412 -8.36152
rtoes -21.7935
lfemur -27.1481 -5.35333 -24.7541
ltibia 37.8164
lfoot -13.4309 -4.24584
ltoes -13.1492
1412
root 0.354836 16.7666 -1.85864 6.49289 5.01322 5.89493
lowerback 19.4603 -0.414188 5.90795
upperback 10.2505 0.719673 10.033
thorax 0.208616 0.324075 7.35675
lowerneck -12.2016 -13.7715 -15.769
upperneck 6.84211 -19.0131 24.1232
head 8.2265 -8.24734 8.04002
rclavicle -1.27222e-014 2.54444e-014
rhumerus 36.4647 39.6971 -33.6387
rradius 56.8885
rwrist 8.42606
rhand -13.5245 10.2695
rfingers 7.12502
rthumb 12.5876 -19.3313
lclavicle -1.27222e-014 2.54444e-014
lhumerus 70.1486 -31.0911 -27.2338
lradius 58.0349
lwrist 25.3235
lhand -2.88861 24.2713
lfingers 7.12502
lthumb 22.8209 52.9413
rfemur -26.7736 0.862804 9.88649
rtibia 41.9663
rfoot -21.1964 -8.01557
rtoes -21.0611
lfemur -27.6529 -5.02834 -24.3627
ltibia 38.3266
lfoot -13.6668 -3.95328
ltoes -13.7782
1413
root 0.371216 16.7526 -1.86826 6.51481 4.41584 5.63008
lowerback 19.5927 -0.488746 5.89383
upperback 9.47883 0.717391 9.97884
thorax -0.708525 0.32145 7.29745
lowerneck -8.78072 -13.0535 -16.607
upperneck 6.11517 -18.22 24.6697
head 7.36907 -8.14124 8.70028
rclavicle -5.24792e-014 -7.95139e-014
rhumerus 34.9146 41.0437 -35.4177
rradius 56.9279
rwrist 8.6016
rhand -13.3714 10.6243
rfingers 7.12502
rthumb 12.7351 -18.9673
lclavicle -5.24792e-014 -7.95139e-014
lhumerus 70.8865 -32.6083 -27.0338
lradius 57.5875
lwrist 24.9614
lhand -2.77508 24.0332
lfingers 7.12502
lthumb 22.9298 52.6897
rfemur -27.187 0.944735 10.1065
rtibia 42.2015
rfoot -21.2561 -7.57255
rtoes -21.2389
lfemur -27.9899 -4.69727 -24.1409
ltibia 38.8578
lfoot -13.9989 -3.685
ltoes -14.7296
1414
root 0.388128 16.7372 -1.87493 6.49185 3.77593 5.59281
lowerback 19.7837 -0.4857 5.63575
upperback 9.65333 0.670439 9.8992
thorax -0.614866 0.287646 7.371
lowerneck -9.30174 -12.9548 -16.2939
upperneck 6.28826 -18.0626 24.4527
head 7.42376 -8.0265 8.57758
rclavicle -1.43125e-014 -2.8625e-014
rhumerus 34.9061 40.6522 -36.5386
rradius 56.8037
rwrist 9.16974
rhand -13.0671 11.0002
rfingers 7.12502
rthumb 13.0285 -18.5729
lclavicle -1.43125e-014 -2.8625e-014
lhumerus 70.6368 -32.4599 -26.457
lradius 57.1412
lwrist 24.9401
lhand -2.8792 24.026
lfingers 7.12502
lthumb 22.8299 52.6948
rfemur -27.5397 0.948664 10.0654
rtibia 42.4661
rfoot -21.3788 -7.04487
rtoes -21.7137
lfemur -28.2101 -4.34614 -24.1857
ltibia 39.3686
lfoot -14.3336 -3.44965
ltoes -14.8255
1415
root 0.40457 16.7199 -1.88465 6.48465 3.17659 5.43268
lowerback 19.9892 -0.502755 5.55703
upperback 9.74706 0.637831 9.79992
thorax -0.614936 0.267191 7.3158
lowerneck -9.77724 -12.8483 -16.0045
upperneck 6.54519 -17.9197 24.2618
head 7.50636 -7.91746 8.46996
rclavicle 4.29375e-014 1.04958e-013
rhumerus 34.7168 40.4624 -37.5909
rradius 56.8669
rwrist 9.68985
rhand -13.0448 11.095
rfingers 7.12502
rthumb 13.05 -18.4767
lclavicle 4.29375e-014 1.04958e-013
lhumerus 70.6533 -32.3731 -25.8949
lradius 56.575
lwrist 24.9279
lhand -3.25949 23.9978
lfingers 7.12502
lthumb 22.4649 52.7112
rfemur -27.938 0.944958 10.1887
rtibia 42.7695
rfoot -21.4992 -6.57732
rtoes -21.9615
lfemur -28.4813 -4.03345 -24.0822
ltibia 39.8575
lfoot -14.6595 -3.1424
ltoes -15.1185
1416
root 0.421196 16.7001 -1.89445 6.5118 2.64351 5.42674
lowerback 20.1729 -0.533734 5.34356
upperback 9.79309 0.565695 9.65138
thorax -0.655031 0.224719 7.29048
lowerneck -9.93765 -12.683 -15.7493
upperneck 6.58175 -17.7003 24.176
head 7.46456 -7.79999 8.43252
rclavicle -1.59028e-015 -1.59028e-014
rhumerus 34.7152 40.5757 -38.0853
rradius 57.1348
rwrist 9.75028
rhand -13.2678 10.9788
rfingers 7.12502
rthumb 12.8351 -18.6066
lclavicle -1.59028e-015 -1.59028e-014
lhumerus 70.7843 -32.302 -25.2336
lradius 55.8712
lwrist 24.9062
lhand -3.35074 24.0314
lfingers 7.12502
lthumb 22.3773 52.7553
rfemur -28.368 0.864605 10.1313
rtibia 43.1225
rfoot -21.645 -6.06813
rtoes -21.7461
lfemur -28.7623 -3.81815 -24.139
ltibia 40.3373
lfoot -14.966 -2.90929
ltoes -14.7019
1417
root 0.434763 16.678 -1.90468 6.56311 2.10357 5.38119
lowerback 20.3496 -0.567886 5.00119
upperback 9.83888 0.467556 9.56785
thorax -0.690134 0.163216 7.41929
lowerneck -9.77513 -12.5044 -15.7159
upperneck 6.53643 -17.4794 24.2674
head 7.38247 -7.70539 8.50911
rclavicle 2.38542e-014 -2.22639e-014
rhumerus 34.8176 40.7725 -38.4404
rradius 57.4936
rwrist 9.72014
rhand -13.2659 11.0463
rfingers 7.12502
rthumb 12.8369 -18.5389
lclavicle 2.38542e-014 -2.22639e-014
lhumerus 70.5983 -32.3525 -24.2503
lradius 55.1434
lwrist 24.7811
lhand -3.15901 24.2342
lfingers 7.12502
lthumb 22.5614 52.936
rfemur -28.851 0.8629 10.1177
rtibia 43.499
rfoot -21.7586 -5.61115
rtoes -21.7675
lfemur -29.0825 -3.55844 -24.1489
ltibia 40.8405
lfoot -15.2717 -2.67781
ltoes -14.7329
1418
root 0.448375 16.6555 -1.91588 6.545 1.53944 5.30516
lowerback 20.5877 -0.618288 4.57642
upperback 9.99657 0.328174 9.52553
thorax -0.627558 0.0754674 7.65455
lowerneck -9.90945 -12.3413 -15.7155
upperneck 6.56831 -17.2576 24.3499
head 7.37962 -7.58857 8.5743
rclavicle 3.18055e-015 -6.36111e-014
rhumerus 35.3701 41.0323 -38.3707
rradius 57.8317
rwrist 9.46399
rhand -13.1785 11.322
rfingers 7.12502
rthumb 12.9212 -18.2579
lclavicle 3.18055e-015 -6.36111e-014
lhumerus 70.0632 -32.3558 -22.8786
lradius 54.3298
lwrist 24.5302
lhand -3.0777 24.4002
lfingers 7.12502
lthumb 22.6394 53.0924
rfemur -29.2833 0.836111 10.1547
rtibia 43.8976
rfoot -21.8603 -5.15338
rtoes -21.932
lfemur -29.3368 -3.23248 -24.1462
ltibia 41.354
lfoot -15.6986 -2.25502
ltoes -16.0283
1419
root 0.465734 16.6327 -1.92432 6.48043 0.97706 5.19872
lowerback 20.7277 -0.666072 4.28065
upperback 10.2656 0.190154 9.44143
thorax -0.389783 -0.00880529 7.7659
lowerneck -10.2937 -12.2044 -15.625
upperneck 6.56192 -17.0535 24.4494
head 7.40754 -7.46166 8.61455
rclavicle -1.59028e-015 -1.90833e-014
rhumerus 35.9857 41.1485 -38.2403
rradius 58.1342
rwrist 9.00346
rhand -13.1951 11.4562
rfingers 7.12502
rthumb 12.9051 -18.1248
lclavicle -1.59028e-015 -1.90833e-014
lhumerus 69.7009 -32.1405 -21.5679
lradius 53.4542
lwrist 24.3932
lhand -2.96975 24.5914
lfingers 7.12502
lthumb 22.743 53.2709
rfemur -29.6553 0.696499 10.2327
rtibia 44.315
rfoot -22.0594 -4.66086
rtoes -21.9465
lfemur -29.541 -2.89306 -24.1209
ltibia 41.8844
lfoot -16.1178 -1.99932
ltoes -15.7263
1420
root 0.486323 16.6083 -1.93214 6.41709 0.455416 5.09294
lowerback 20.8801 -0.77291 4.02927
upperback 10.4193 -0.00435177 9.30875
thorax -0.278014 -0.117374 7.80875
lowerneck -10.4208 -12.0527 -15.595
upperneck 6.56381 -16.8549 24.5763
head 7.4015 -7.35482 8.68658
rclavicle -2.38542e-014 -4.13472e-014
rhumerus 36.4407 41.4923 -38.169
rradius 58.5392
rwrist 8.47484
rhand -13.4325 11.4454
rfingers 7.12502
rthumb 12.6763 -18.1499
lclavicle -2.38542e-014 -4.13472e-014
lhumerus 69.3382 -32.1272 -20.2426
lradius 52.5425
lwrist 24.3209
lhand -2.70606 24.5782
lfingers 7.12502
lthumb 22.996 53.2265
rfemur -30.0168 0.547399 10.2924
rtibia 44.7467
rfoot -22.3118 -4.09437
rtoes -21.9118
lfemur -29.7646 -2.59029 -24.1168
ltibia 42.4464
lfoot -16.4933 -1.76841
ltoes -15.1919
1421
root 0.504102 16.5795 -1.94277 6.34351 -0.0193687 5.02725
lowerback 21.1395 -0.857444 3.77786
upperback 10.4904 -0.153245 9.10299
thorax -0.316986 -0.198971 7.76218
lowerneck -10.431 -12.019 -15.6556
upperneck 6.60201 -16.8668 24.9382
head 7.46814 -7.34503 8.82621
rclavicle -1.59028e-015 -3.18055e-014
rhumerus 36.594 41.7991 -38.32
rradius 58.9437
rwrist 8.06919
rhand -13.7328 11.3281
rfingers 7.12502
rthumb 12.3867 -18.2849
lclavicle -1.59028e-015 -3.18055e-014
lhumerus 69.1756 -32.1432 -19.0041
lradius 51.6297
lwrist 24.222
lhand -2.44633 24.6833
lfingers 7.12502
lthumb 23.2452 53.3003
rfemur -30.391 0.411384 10.3133
rtibia 45.2132
rfoot -22.5763 -3.53883
rtoes -21.6778
lfemur -29.9956 -2.33112 -24.1401
ltibia 43.0326
lfoot -16.8947 -1.66892
ltoes -14.4386
1422
root 0.51958 16.5492 -1.95506 6.27727 -0.5489 4.87348
lowerback 21.3994 -0.89414 3.4703
upperback 10.7306 -0.267779 8.94425
thorax -0.170821 -0.271225 7.79516
lowerneck -10.9337 -12.0184 -15.439
upperneck 6.67517 -16.8927 25.1164
head 7.59086 -7.30733 8.82834
rclavicle -1.11319e-014 -4.45278e-014
rhumerus 37.1955 41.8761 -38.1426
rradius 59.3213
rwrist 7.72205
rhand -14.0433 11.065
rfingers 7.12502
rthumb 12.0873 -18.5659
lclavicle -1.11319e-014 -4.45278e-014
lhumerus 68.8842 -31.909 -17.4808
lradius 50.5641
lwrist 23.7331
lhand -2.65433 24.7442
lfingers 7.12502
lthumb 23.0457 53.3862
rfemur -30.815 0.380475 10.4391
rtibia 45.6966
rfoot -22.8177 -2.96259
rtoes -21.8406
lfemur -30.2717 -2.03163 -24.0663
ltibia 43.6664
lfoot -17.4208 -1.22418
ltoes -15.5065
